<svg width="301" height="359" viewBox="0 0 301 359" fill="none" xmlns="http://www.w3.org/2000/svg">
<rect opacity="0.7" x="300" y="358" width="244" height="136" rx="30" transform="rotate(180 300 358)" fill="url(#paint0_linear_11_101)" fill-opacity="0.1" stroke="url(#paint1_linear_11_101)"/>
<rect opacity="0.7" x="0.5" y="0.5" width="243" height="135" rx="29.5" fill="url(#paint2_linear_11_101)" fill-opacity="0.1" stroke="url(#paint3_linear_11_101)"/>
<path d="M87.6523 67.5625C84.9336 67.5625 82.6836 66.8301 80.9023 65.3652C79.1328 63.9121 78.207 62.0371 78.125 59.7402H83.0293C83.1816 60.8184 83.6855 61.6914 84.541 62.3594C85.4082 63.0273 86.457 63.3613 87.6875 63.3613C89.0703 63.3613 90.2012 62.9219 91.0801 62.043C91.9473 61.1758 92.3809 60.0508 92.3809 58.668C92.3809 57.2617 91.9473 56.1133 91.0801 55.2227C90.2129 54.332 89.0938 53.8867 87.7227 53.8867C85.6953 53.8867 84.2129 54.666 83.2754 56.2246H78.5293L79.7773 41.6348H95.9141V45.8535H83.9434L83.3633 52.7969H83.4688C84.5938 50.9453 86.4746 50.0195 89.1113 50.0195C91.5371 50.0195 93.5352 50.8223 95.1055 52.4277C96.6641 54.0215 97.4434 56.0547 97.4434 58.5273C97.4434 61.2109 96.541 63.3906 94.7363 65.0664C92.9199 66.7305 90.5586 67.5625 87.6523 67.5625ZM110.152 67.5625C107.434 67.5625 105.184 66.8301 103.402 65.3652C101.633 63.9121 100.707 62.0371 100.625 59.7402H105.529C105.682 60.8184 106.186 61.6914 107.041 62.3594C107.908 63.0273 108.957 63.3613 110.188 63.3613C111.57 63.3613 112.701 62.9219 113.58 62.043C114.447 61.1758 114.881 60.0508 114.881 58.668C114.881 57.2617 114.447 56.1133 113.58 55.2227C112.713 54.332 111.594 53.8867 110.223 53.8867C108.195 53.8867 106.713 54.666 105.775 56.2246H101.029L102.277 41.6348H118.414V45.8535H106.443L105.863 52.7969H105.969C107.094 50.9453 108.975 50.0195 111.611 50.0195C114.037 50.0195 116.035 50.8223 117.605 52.4277C119.164 54.0215 119.943 56.0547 119.943 58.5273C119.943 61.2109 119.041 63.3906 117.236 65.0664C115.42 66.7305 113.059 67.5625 110.152 67.5625ZM132.828 67.5625C129.641 67.5625 127.133 66.373 125.305 63.9941C123.477 61.627 122.562 58.3867 122.562 54.2734C122.562 50.1836 123.482 46.9551 125.322 44.5879C127.15 42.2324 129.652 41.0547 132.828 41.0547C136.004 41.0547 138.506 42.2324 140.334 44.5879C142.162 46.9434 143.076 50.166 143.076 54.2559C143.076 58.3574 142.168 61.5977 140.352 63.9766C138.523 66.3672 136.016 67.5625 132.828 67.5625ZM132.828 63.3086C134.352 63.3086 135.541 62.5234 136.396 60.9531C137.252 59.3711 137.68 57.1445 137.68 54.2734C137.68 51.4258 137.246 49.2168 136.379 47.6465C135.523 46.0879 134.34 45.3086 132.828 45.3086C131.316 45.3086 130.133 46.0879 129.277 47.6465C128.398 49.2285 127.959 51.4375 127.959 54.2734C127.959 57.1328 128.393 59.3594 129.26 60.9531C130.115 62.5234 131.305 63.3086 132.828 63.3086ZM158.51 66.7539H153.904V59.0723H146.732V54.5898H153.904V46.9961H158.51V54.5898H165.682V59.0723H158.51V66.7539Z" fill="white"/>
<path d="M80.8906 91.1875L87.6719 97H87.0781L80.4922 91.3516H80.4609V97H80.0703V85.7266H80.4609V91.0703H80.4922L86.6797 85.7266H87.25L80.8906 91.1875ZM96.6797 97H96.2891V86.0938H90.9844L90.5391 93.4844C90.4297 95.4297 89.9844 97.0703 88.4688 97.0703C88.2188 97.0703 88.0469 97 88.0312 97V96.6328C88.0391 96.6406 88.2188 96.7031 88.4531 96.7031C89.6172 96.7031 90.0312 95.2891 90.1406 93.4297L90.6094 85.7266H96.6797V97ZM106.719 97V86.3906H106.68L99.1641 97H98.7734V85.7266H99.1641V96.3359H99.2031L106.719 85.7266H107.109V97H106.719ZM115.664 96.6328V97H109.211V85.7266H115.664V86.0938H109.602V91.0312H115.383V91.3906H109.602V96.6328H115.664ZM125.555 97H125.164V91.3906H117.758V97H117.367V85.7266H117.758V91.0234H125.164V85.7266H125.555V97ZM131.234 97H130.852V86.0938H126.781V85.7266H135.305V86.0938H131.234V97ZM140.375 85.5703C143.406 85.5703 145.344 87.8203 145.344 91.3594C145.344 94.9141 143.414 97.1562 140.375 97.1562C137.328 97.1562 135.406 94.9141 135.406 91.3594C135.406 87.8203 137.336 85.5703 140.375 85.5703ZM140.375 85.9375C137.578 85.9375 135.797 88.0469 135.797 91.3594C135.797 94.6719 137.578 96.7891 140.375 96.7891C143.164 96.7891 144.953 94.6719 144.953 91.3594C144.953 88.0469 143.164 85.9375 140.375 85.9375ZM150.695 97H146.961V85.7266H150.586C152.547 85.7266 153.883 86.8281 153.883 88.4531C153.883 89.8438 153.008 90.8672 151.594 91.1484V91.1797C153.203 91.3438 154.484 92.3672 154.484 94.0391C154.484 95.8438 153.047 97 150.695 97ZM147.352 86.0859V91.0234H150.484C152.289 91.0234 153.492 90.0234 153.492 88.4609C153.492 87.0312 152.32 86.0859 150.555 86.0859H147.352ZM147.352 96.6406H150.68C152.812 96.6406 154.102 95.6172 154.102 94.0312C154.102 92.4062 152.75 91.3828 150.508 91.3828H147.352V96.6406Z" fill="white"/>
<path d="M77.2656 318.727H80.7656C82.9766 318.727 84.3828 320.008 84.3828 322.016C84.3828 324.023 82.9688 325.305 80.7578 325.305H77.6562V330H77.2656V318.727ZM77.6562 319.094V324.938H80.7344C82.7266 324.938 83.9922 323.82 83.9922 322.016C83.9922 320.203 82.7344 319.094 80.7344 319.094H77.6562ZM92.375 329.633V330H85.9219V318.727H92.375V319.094H86.3125V324.031H92.0938V324.391H86.3125V329.633H92.375ZM94.8984 324.188L101.68 330H101.086L94.5 324.352H94.4688V330H94.0781V318.727H94.4688V324.07H94.5L100.688 318.727H101.258L94.8984 324.188ZM106.758 318.57C109.789 318.57 111.727 320.82 111.727 324.359C111.727 327.914 109.797 330.156 106.758 330.156C103.711 330.156 101.789 327.914 101.789 324.359C101.789 320.82 103.719 318.57 106.758 318.57ZM106.758 318.938C103.961 318.938 102.18 321.047 102.18 324.359C102.18 327.672 103.961 329.789 106.758 329.789C109.547 329.789 111.336 327.672 111.336 324.359C111.336 321.047 109.547 318.938 106.758 318.938ZM123.711 318.727V330H123.328V319.625H123.297L118.734 329.992H118.32L113.758 319.625H113.727V330H113.344V318.727H113.758L118.516 329.508H118.547L123.281 318.727H123.711ZM132.266 329.633V330H125.812V318.727H132.266V319.094H126.203V324.031H131.984V324.391H126.203V329.633H132.266ZM142.156 330H141.766V324.391H134.359V330H133.969V318.727H134.359V324.023H141.766V318.727H142.156V330ZM145.648 326.5C145.57 327.852 145.344 328.992 144.68 329.594V329.633H151.703V319.094H146.094L145.648 326.5ZM143.672 330V332.234H143.289V329.633H144.016C144.82 329.242 145.156 328.023 145.25 326.453L145.719 318.727H152.094V329.633H153.57V332.234H153.188V330H143.672ZM162.555 330L161.078 326.086H155.836L154.352 330H153.922L158.258 318.727H158.656L162.992 330H162.555ZM158.438 319.266L155.977 325.727H160.938L158.477 319.266H158.438ZM173.789 332.227H173.406V330H164.281V318.727H164.672V329.633H171.922V318.727H172.312V329.633H173.789V332.227ZM182.898 330V319.391H182.859L175.344 330H174.953V318.727H175.344V329.336H175.383L182.898 318.727H183.289V330H182.898ZM187.547 316.172H187.906C187.906 317.047 188.594 317.555 189.562 317.555C190.531 317.555 191.219 317.047 191.219 316.172H191.578C191.578 317.266 190.75 317.867 189.562 317.867C188.375 317.867 187.547 317.266 187.547 316.172ZM193.336 330V319.391H193.297L185.781 330H185.391V318.727H185.781V329.336H185.82L193.336 318.727H193.727V330H193.336Z" fill="white"/>
<path d="M87.5371 300.562C85.1113 300.562 83.0312 299.906 81.2969 298.594C79.5625 297.293 78.5195 295.605 78.168 293.531H83.4062C83.6641 294.387 84.1738 295.072 84.9355 295.588C85.709 296.104 86.6055 296.361 87.625 296.361C89.3945 296.361 90.7656 295.564 91.7383 293.971C92.7227 292.354 93.1797 290.104 93.1094 287.221H93.0039C92.5352 288.486 91.7148 289.488 90.543 290.227C89.3242 290.988 87.8945 291.369 86.2539 291.369C83.8516 291.369 81.8535 290.578 80.2598 288.996C78.6426 287.402 77.834 285.404 77.834 283.002C77.834 280.4 78.7539 278.256 80.5938 276.568C82.4336 274.893 84.7715 274.055 87.6074 274.055C91.4395 274.055 94.2578 275.602 96.0625 278.695C97.4805 280.875 98.1895 283.676 98.1895 287.098C98.1895 291.305 97.252 294.598 95.377 296.977C93.4902 299.367 90.877 300.562 87.5371 300.562ZM87.6426 287.379C88.9668 287.379 90.0684 286.951 90.9473 286.096C91.8379 285.229 92.2832 284.156 92.2832 282.879C92.2832 281.59 91.8379 280.5 90.9473 279.609C90.0566 278.73 88.9668 278.291 87.6777 278.291C86.377 278.291 85.2754 278.73 84.373 279.609C83.4707 280.488 83.0195 281.566 83.0195 282.844C83.0195 284.145 83.459 285.223 84.3379 286.078C85.2168 286.945 86.3184 287.379 87.6426 287.379ZM111.057 300.562C108.338 300.562 106.088 299.83 104.307 298.365C102.537 296.912 101.611 295.037 101.529 292.74H106.434C106.586 293.818 107.09 294.691 107.945 295.359C108.812 296.027 109.861 296.361 111.092 296.361C112.475 296.361 113.605 295.922 114.484 295.043C115.352 294.176 115.785 293.051 115.785 291.668C115.785 290.262 115.352 289.113 114.484 288.223C113.617 287.332 112.498 286.887 111.127 286.887C109.1 286.887 107.617 287.666 106.68 289.225H101.934L103.182 274.635H119.318V278.854H107.348L106.768 285.797H106.873C107.998 283.945 109.879 283.02 112.516 283.02C114.941 283.02 116.939 283.822 118.51 285.428C120.068 287.021 120.848 289.055 120.848 291.527C120.848 294.211 119.945 296.391 118.141 298.066C116.324 299.73 113.963 300.562 111.057 300.562ZM149.711 293.777C149.711 295.793 149.189 297.393 148.146 298.576C147.104 299.771 145.697 300.369 143.928 300.369C142.158 300.369 140.752 299.771 139.709 298.576C138.666 297.393 138.145 295.793 138.145 293.777C138.145 291.773 138.666 290.186 139.709 289.014C140.74 287.842 142.146 287.256 143.928 287.256C145.709 287.256 147.121 287.842 148.164 289.014C149.195 290.186 149.711 291.773 149.711 293.777ZM143.928 297.293C144.502 297.293 144.953 296.977 145.281 296.344C145.609 295.723 145.773 294.867 145.773 293.777C145.773 291.48 145.158 290.332 143.928 290.332C143.354 290.332 142.902 290.637 142.574 291.246C142.246 291.867 142.082 292.717 142.082 293.795C142.082 294.873 142.246 295.723 142.574 296.344C142.902 296.977 143.354 297.293 143.928 297.293ZM134.365 280.453C134.365 282.469 133.844 284.068 132.801 285.252C131.758 286.447 130.352 287.045 128.582 287.045C126.812 287.045 125.406 286.447 124.363 285.252C123.32 284.068 122.799 282.469 122.799 280.453C122.799 278.449 123.32 276.861 124.363 275.689C125.395 274.518 126.801 273.932 128.582 273.932C130.363 273.932 131.775 274.518 132.818 275.689C133.85 276.861 134.365 278.449 134.365 280.453ZM128.582 283.969C129.156 283.969 129.607 283.652 129.936 283.02C130.264 282.398 130.428 281.543 130.428 280.453C130.428 278.156 129.812 277.008 128.582 277.008C128.008 277.008 127.557 277.312 127.229 277.922C126.9 278.543 126.736 279.393 126.736 280.471C126.736 281.549 126.9 282.398 127.229 283.02C127.557 283.652 128.008 283.969 128.582 283.969ZM124.592 300L143.119 274.635H147.619L129.109 300H124.592Z" fill="white"/>
<defs>
<linearGradient id="paint0_linear_11_101" x1="544" y1="432" x2="300" y2="431" gradientUnits="userSpaceOnUse">
<stop stop-color="#D9D9D9"/>
<stop offset="1" stop-color="#737373" stop-opacity="0"/>
</linearGradient>
<linearGradient id="paint1_linear_11_101" x1="544" y1="426" x2="350" y2="426" gradientUnits="userSpaceOnUse">
<stop stop-color="#B0B0B0"/>
<stop offset="1" stop-color="#999999" stop-opacity="0"/>
</linearGradient>
<linearGradient id="paint2_linear_11_101" x1="244" y1="74" x2="1.19758e-05" y2="73" gradientUnits="userSpaceOnUse">
<stop stop-color="#D9D9D9"/>
<stop offset="1" stop-color="#737373" stop-opacity="0"/>
</linearGradient>
<linearGradient id="paint3_linear_11_101" x1="244" y1="68" x2="50" y2="68" gradientUnits="userSpaceOnUse">
<stop stop-color="#D9D9D9"/>
<stop offset="1" stop-color="#999999" stop-opacity="0"/>
</linearGradient>
</defs>
</svg>
