<svg width="493" height="130" viewBox="0 0 493 130" fill="none" xmlns="http://www.w3.org/2000/svg">
<path d="M41.1831 105.331C29.616 105.331 20.4972 101.836 13.8267 94.8457C7.19157 87.8203 3.87402 78.0628 3.87402 65.5732C3.87402 53.1191 7.20931 43.3971 13.8799 36.4072C20.5505 29.3818 29.6515 25.8691 41.1831 25.8691C47.6053 25.8691 53.4243 27.1642 58.6401 29.7544C63.856 32.3091 67.9896 35.9282 71.041 40.6118C74.1279 45.2599 75.7601 50.5645 75.9375 56.5254H57.1499C56.6886 52.0192 54.9855 48.4001 52.0405 45.668C49.0955 42.9004 45.4764 41.5166 41.1831 41.5166C35.8254 41.5166 31.5853 43.6632 28.4629 47.9565C25.3405 52.2498 23.7793 58.1043 23.7793 65.52C23.7793 73.0422 25.3405 78.9499 28.4629 83.2432C31.5853 87.5365 35.8431 89.6831 41.2363 89.6831C45.5296 89.6831 49.1133 88.3703 51.9873 85.7446C54.8968 83.119 56.6532 79.5531 57.2563 75.0469H76.0439C75.5827 84.1302 72.141 91.4572 65.7188 97.0278C59.2965 102.563 51.118 105.331 41.1831 105.331ZM84.1338 104V44.7632H102.442V55.8867H102.815C104.979 47.9388 109.645 43.9648 116.812 43.9648C118.516 43.9648 120.112 44.2132 121.603 44.71V60.8896C119.97 60.18 117.948 59.8252 115.535 59.8252C111.49 59.8252 108.386 60.9429 106.221 63.1782C104.057 65.3781 102.975 68.5537 102.975 72.7051V104H84.1338ZM153.855 56.8979C150.84 56.8979 148.303 57.9092 146.245 59.9316C144.187 61.9541 143.034 64.5443 142.785 67.7021H164.819C164.642 64.4378 163.542 61.8299 161.52 59.8784C159.533 57.8914 156.978 56.8979 153.855 56.8979ZM165.245 85.3721H182.276C181.354 91.4395 178.356 96.2827 173.282 99.9019C168.243 103.486 161.892 105.277 154.228 105.277C144.861 105.277 137.516 102.563 132.194 97.1343C126.872 91.7056 124.21 84.2189 124.21 74.6743C124.21 65.1297 126.854 57.5544 132.141 51.9482C137.427 46.3066 144.577 43.4858 153.589 43.4858C162.424 43.4858 169.467 46.1825 174.719 51.5757C180.006 56.9334 182.649 64.1185 182.649 73.1309V78.5063H142.572V79.6772C142.572 83.2964 143.672 86.2414 145.872 88.5122C148.072 90.7476 150.946 91.8652 154.494 91.8652C157.12 91.8652 159.391 91.2975 161.307 90.1621C163.223 88.9912 164.535 87.3945 165.245 85.3721ZM214.583 91.7056C217.705 91.7056 220.348 90.8717 222.513 89.2041C224.713 87.501 225.812 85.3188 225.812 82.6577V78.5596L214.902 79.3047C212.241 79.4821 210.183 80.1208 208.728 81.2207C207.309 82.3206 206.599 83.7754 206.599 85.585C206.599 87.4655 207.309 88.9557 208.728 90.0557C210.183 91.1556 212.134 91.7056 214.583 91.7056ZM207.93 104.798C202.288 104.798 197.534 103.131 193.666 99.7954C189.834 96.4246 187.918 92.1136 187.918 86.8623C187.918 81.3626 189.958 77.0871 194.039 74.0356C198.154 70.9842 204.115 69.2101 211.921 68.7134L225.812 67.8618V64.4556C225.812 62.0783 225.014 60.251 223.417 58.9736C221.856 57.6608 219.727 57.0044 217.031 57.0044C214.512 57.0044 212.436 57.6076 210.804 58.814C209.172 59.9849 208.214 61.5106 207.93 63.3911H190.952C191.2 57.3947 193.755 52.5869 198.616 48.9678C203.512 45.3132 209.952 43.4858 217.936 43.4858C225.812 43.4858 232.164 45.3309 236.989 49.021C241.815 52.6756 244.228 57.4834 244.228 63.4443V104H225.919V95.4844H225.546C223.985 98.3939 221.572 100.682 218.308 102.35C215.079 103.982 211.62 104.798 207.93 104.798ZM258.438 31.6704H277.279V44.7632H287.977V58.7075H277.279V83.9883C277.279 88.1396 279.567 90.2153 284.145 90.2153C285.457 90.2153 286.735 90.1266 287.977 89.9492V103.361C285.812 103.858 283.045 104.106 279.674 104.106C272.081 104.106 266.634 102.847 263.334 100.328C260.07 97.7729 258.438 93.5861 258.438 87.7671V58.7075H250.508V44.7632H258.438V31.6704ZM300.431 27.1997H319.804L318.154 78.8257H302.081L300.431 27.1997ZM310.117 105.756C307.314 105.756 304.919 104.834 302.932 102.989C300.981 101.108 300.005 98.8374 300.005 96.1763C300.005 93.5151 300.981 91.262 302.932 89.417C304.919 87.5719 307.314 86.6494 310.117 86.6494C312.885 86.6494 315.244 87.5719 317.196 89.417C319.183 91.262 320.176 93.5151 320.176 96.1763C320.176 98.8374 319.183 101.108 317.196 102.989C315.244 104.834 312.885 105.756 310.117 105.756Z" fill="#E32652"/>
<path d="M381.603 104H362.07V27.1997H414.334V42.9536H381.603V60.4106H411.354V75.3662H381.603V104ZM464.683 104H445.15V77.6016L418.699 27.1997H439.668L454.943 59.1333H455.316L470.538 27.1997H491.135L464.683 77.6016V104Z" fill="white"/>
</svg>
